# xmcd
# 
# Track frame offsets:
#     150
#     21696
#     40600
#     54735
#     69340
#     90969
#     109607
#     125046
#     138463
#     159630
# 
# Disc length: 2418
# 
# Revision: 0
# Processed by: cddbd v1.5.2PL0 Copyright (c) Steve Scherf et al.
# Submitted via: fre:ac v1.0.31
# 
DISCID=8609700a
DTITLE=Florent Pagny - Viellir avec Toi
DYEAR=0
DGENRE=Pop
TTITLE0=Les Murs Porteurs
TTITLE1=Combien de Gens
TTITLE2=Vieillir avec Toi
TTITLE3=Le Soldat
TTITLE4=Après Nous
TTITLE5=Parle
TTITLE6=Condoléances
TTITLE7=On Sera Là
TTITLE8=Quand On Est Seul En Décembre
TTITLE9=Souviens-Toi
EXTD=
EXTT0=
EXTT1=
EXTT2=
EXTT3=
EXTT4=
EXTT5=
EXTT6=
EXTT7=
EXTT8=
EXTT9=
PLAYORDER=
